<svg xmlns="http://www.w3.org/2000/svg" xmlns:xlink="http://www.w3.org/1999/xlink" viewBox="0 0 2733.45 2258.34"><defs><style>.cls-1{isolation:isolate;}.cls-2{fill:none;}.cls-3{fill:#da1381;}.cls-4{mix-blend-mode:multiply;}.cls-5{fill:#deddf3;}.cls-6{fill:#3d9a98;}.cls-7{fill:#d3d3e5;}.cls-8{fill:#7562e0;}.cls-9{fill:#1f3235;}.cls-10{fill:#005d7f;}.cls-11{fill:#00181e;}.cls-12{fill:#a5a3db;}.cls-13{fill:#8cc6c5;}.cls-14{fill:#e5b7cf;}.cls-15{fill:#998675;}.cls-16{fill:url(#linear-gradient);}.cls-17{fill:url(#linear-gradient-2);}.cls-18{fill:#fff;}</style><linearGradient id="linear-gradient" x1="12864.5" y1="15528.3" x2="12864.5" y2="15187.71" gradientTransform="matrix(-0.06, -1, -1, 0.06, 16848.19, 13630.36)" gradientUnits="userSpaceOnUse"><stop offset="0.17" stop-color="#1f191a"/><stop offset="0.2" stop-color="#19262d"/><stop offset="0.27" stop-color="#103a4a"/><stop offset="0.34" stop-color="#094962"/><stop offset="0.42" stop-color="#045472"/><stop offset="0.5" stop-color="#015b7c"/><stop offset="0.61" stop-color="#005d7f"/></linearGradient><linearGradient id="linear-gradient-2" x1="12864.39" y1="15528.3" x2="12864.39" y2="15187.71" xlink:href="#linear-gradient"/></defs><g class="cls-1"><g id="Camada_2" data-name="Camada 2"><g id="Camada_1-2" data-name="Camada 1"><polygon class="cls-2" points="1374.06 2058.72 1373.55 2059.04 1373.55 2059.07 1373.58 2059.08 1374.07 2058.77 1374.06 2058.72"/><polygon class="cls-2" points="1924.79 933.47 1825.14 996.48 1825.24 996.65 1985.18 895.52 1985.17 895.3 1924.79 933.47"/><polygon class="cls-2" points="1301.05 1294.93 1301.33 1294.49 1229.54 1260.49 1230.03 1261.29 1301.05 1294.93"/><polygon class="cls-2" points="1828.5 1770.49 1828.5 1771.43 1908.13 1721.08 1907.72 1720.4 1828.5 1770.49"/><polygon class="cls-2" points="1651.11 952.01 1651.3 952.01 1637.61 726.98 1637.41 726.89 1637.38 726.87 1637.41 726.89 1651.11 952.01"/><polygon class="cls-2" points="349.69 1240.4 349.69 1240.43 349.72 1240.42 349.69 1240.4"/><polygon class="cls-2" points="1286.66 545.2 1286.65 544.98 1286.43 545.12 1286.63 545.22 1286.66 545.2"/><polygon class="cls-2" points="725.99 1691.66 725.99 1691.44 674.43 1724.04 674.45 1724.26 725.99 1691.66"/><polygon class="cls-3" points="991.49 743.19 1273.35 876.68 1273.37 876.66 1255.11 576.52 1254.69 576.78 1254.69 576.73 991.49 743.16 991.49 743.19"/><polygon class="cls-4" points="1263.97 186.53 1263.93 186.51 1263.26 186.94 1264.01 187.29 1263.97 186.53"/><path class="cls-5" d="M1064.73,994.52l.1.17,30.22,48.77,203.74-128.83L947.48,748.25,959.88,952h27.88C1021.2,952,1047.09,966.31,1064.73,994.52ZM957.45,768.24l0,0v0Z"/><polygon class="cls-6" points="1637.61 726.98 1637.6 726.74 1637.41 726.86 1637.41 726.89 1637.61 726.98"/><path class="cls-5" d="M1525.09,961.31c11.7-6.17,25-9.3,39.65-9.3h86.37l-13.7-225.12,0,0L1310.85,933.34l167.52,79.33,11.46-18.25C1499.09,979.6,1511,968.44,1525.09,961.31Z"/><path class="cls-3" d="M1749,952c14.62,0,28,3.13,39.65,9.3,14.12,7.13,26,18.29,35.32,33.21l.11.17,1.11,1.79,99.65-63,60.38-38.17v.22l.29-.19-.25-.11,0,0v0h0l.69-.43-.06-1,0,0h0l1,.46,1.63-1L1637.61,727l13.69,225Z"/><path class="cls-7" d="M2115.27,813,2102,799.75q5.28,7.46,10.41,15Z"/><path class="cls-3" d="M1175.33,151.45A714.92,714.92,0,0,0,884.87,239.8l304.61,144.27Z"/><polygon class="cls-3" points="826.04 895.6 806.83 579.73 803.45 524.2 803.41 524.18 477.26 730.41 596.98 787.11 826.04 895.6"/><path class="cls-8" d="M444.86,691.92,430.73,459.76l-83.18,83.18a721.29,721.29,0,0,0-63.63,72.8l160.9,76.2Z"/><path class="cls-8" d="M513.42,533.54l-.13-2.11,2,.94L841.42,326.14l0,0L821.61,0a719.29,719.29,0,0,0-114,92.83L498.75,301.72l14.12,232.16Z"/><path class="cls-5" d="M931,379.9q-19.22,10.74-37.81,23L900.33,521l10.2,167.64L1198,506.85l0-.48-123.8-58.63Z"/><polygon class="cls-9" points="1263.26 186.94 1262.79 186.71 1262.82 187.22 1263.26 186.94"/><polygon class="cls-9" points="1285.55 560.78 1286.03 560.47 1285.51 560.23 1285.55 560.78"/><path class="cls-8" d="M1286.08,545.34l20.4,335.34h0v0l0,0,1.77-1.12-1.76-.84v0l294.6-186.28-15.41-253.25a921.33,921.33,0,0,0-98.8-20.78l1-.62a1007.36,1007.36,0,0,0-129-8.26q-41.25,0-81.67,3.31l8.09,133Zm.57-.36v.22l0,0-.2-.1Z"/><polygon class="cls-9" points="1286.7 560.68 1286.73 560.66 1286.7 560.11 1286.19 560.44 1286.7 560.68"/><polygon class="cls-9" points="1286.06 560.45 1286.03 560.47 1286.06 560.49 1286.07 560.51 1286.19 560.44 1286.13 560.41 1286.06 560.45"/><path class="cls-5" d="M1637.43,668.61h0l.13,2.1,196.07-124A921.92,921.92,0,0,0,1624,450.29l13.29,218.41Z"/><polygon class="cls-10" points="673.65 1723.99 673.68 1724.51 674.14 1724.22 673.65 1723.99"/><polygon class="cls-11" points="957.45 768.24 957.48 768.26 957.48 768.22 957.45 768.24"/><polygon class="cls-11" points="1637.41 726.86 1637.38 726.87 1637.41 726.89 1637.41 726.86"/><polygon class="cls-5" points="1308.88 934.59 1308.88 934.59 1308.84 934.61 1308.84 934.61 1328.14 1251.81 1477.31 1014.36 1308.88 934.59"/><path class="cls-3" d="M1638.07,727.15l350.45,166,.22-.14.62-.39,123.08-77.83q-5.13-7.56-10.41-15a931.68,931.68,0,0,0-222.67-222.68l-1.9-1.33L1638.07,727.11Z"/><polygon class="cls-8" points="654.78 1348.18 655.3 1348.42 652.21 1350.38 725.99 1385.33 725.99 1303.15 654.78 1348.18"/><polygon class="cls-8" points="651.72 1350.69 674.43 1724.04 725.99 1691.44 725.99 1385.39 652.15 1350.42 651.72 1350.69"/><polygon class="cls-8" points="1328.26 1251.4 1328.1 1251.41 1308.83 934.65 1308.83 934.62 1308.8 934.64 1106.78 1062.38 1229.54 1260.49 1231.03 1261.19 1230.04 1261.29 1275.79 1335.14 1301.28 1294.46 1301.33 1294.49 1328.13 1251.83 1328.11 1251.63 1328.26 1251.4"/><path class="cls-8" d="M772,959.45,551.64,855.09l-48.18-22.82,6.11,100.47L526,1202.84l.73.35,59.69-37.75L726,1077.19v-45.63A79.66,79.66,0,0,1,772,959.45ZM629.49,976.3l-.59-.27,0,0,0,0,.55-.34-.13-2.11,2,.94-1.85,1.17Z"/><polygon class="cls-12" points="628.9 976.03 629.49 976.3 629.45 975.64 628.9 975.99 628.9 976.03"/><polygon class="cls-12" points="628.87 976.01 628.9 976.03 628.9 975.99 628.87 976.01"/><polygon class="cls-5" points="629.32 973.53 629.45 975.64 631.3 974.47 629.32 973.53"/><polygon class="cls-6" points="651.66 1350.15 651.67 1350.19 651.69 1350.2 651.68 1350.14 651.66 1350.15"/><polygon class="cls-6" points="651.68 1350.14 651.68 1350.14 651.69 1350.14 651.68 1350.14"/><polygon class="cls-6" points="651.69 1350.2 651.72 1350.69 652.15 1350.42 651.69 1350.2"/><path class="cls-3" d="M258.05,1482.65q5.56,18.52,12.18,36.79l56.93,27,132.71,62.85L579.63,1666,557,1293.67h0l-137.44,86.9Z"/><path class="cls-5" d="M339.51,1832.62,493.87,1735l0-.63.05,0,.05,0,.55.26h0v0h0l1.62-1L188.68,1588A713.16,713.16,0,0,0,339.51,1832.62Z"/><path class="cls-3" d="M107.93,1012.11q-5.15,20.14-9.14,40.51l316.6,150L392.85,832l0,0Z"/><path class="cls-5" d="M35.86,1088.19A720.08,720.08,0,0,0,53.4,1428.06v0l31.66-20L353.23,1238.5Zm313.83,152.22h0Z"/><path class="cls-5" d="M123.6,620.12A711.91,711.91,0,0,0,0,875.69l15.85-10L284,696.1Z"/><polygon class="cls-10" points="1985.88 893.72 1985.85 893.74 1985.91 894.78 1986.86 894.18 1985.88 893.72 1985.88 893.72"/><polygon class="cls-5" points="674.45 1724.26 674.43 1724.04 674.14 1724.22 674.39 1724.34 674.43 1724.32 674.43 1724.36 674.39 1724.34 673.7 1724.78 673.76 1725.81 673.73 1725.84 673.73 1725.84 672.76 1725.38 671.13 1726.4 725.99 1752.38 725.99 1691.66 674.45 1724.26"/><polygon class="cls-13" points="673.73 1725.84 673.76 1725.81 673.7 1724.78 672.76 1725.38 673.73 1725.84 673.73 1725.84"/><polygon class="cls-13" points="674.43 1724.32 674.39 1724.34 674.43 1724.36 674.43 1724.32"/><path class="cls-5" d="M546.75,1805.05A930.62,930.62,0,0,0,686,1985.56L670.26,1727Z"/><polygon class="cls-9" points="670.84 1726.31 670.86 1726.32 670.86 1726.3 670.84 1726.31"/><path class="cls-9" d="M1723.94,2225l1,.44-.06-1Z"/><path class="cls-5" d="M1718.82,2083.64H1577a89.5,89.5,0,0,1-89.4-89.4v-8.16l-111.12,70.27v0l-268.33,169.67a927.59,927.59,0,0,0,243.33,32.29q20.27,0,40.3-.88v-.2c91.68-4.47,197.5-29.1,283-59.12l.83.39q24.87-9.42,49-20.21Z"/><polygon class="cls-9" points="1373.58 2059.08 1374.1 2059.33 1374.07 2058.77 1373.58 2059.08"/><path class="cls-14" d="M1067.31,1862.21v2L1211.45,1773c-.77-.16-1.54-.33-2.29-.52Z"/><polygon class="cls-9" points="1373.42 2059.12 1373.04 2058.94 1373.07 2059.35 1373.42 2059.12"/><polygon class="cls-9" points="1372.88 2058.9 1372.92 2059.44 1373.07 2059.35 1373.04 2058.94 1372.91 2058.88 1372.88 2058.9"/><polygon class="cls-9" points="1373.55 2059.04 1373.42 2059.12 1373.48 2059.15 1373.55 2059.1 1373.58 2059.08 1373.55 2059.07 1373.55 2059.04"/><polygon class="cls-9" points="1373.07 2059.35 1373.07 2059.41 1373.48 2059.15 1373.42 2059.12 1373.07 2059.35"/><polygon class="cls-9" points="1372.92 2059.44 1372.92 2059.5 1373.07 2059.41 1373.07 2059.35 1372.92 2059.44"/><path class="cls-7" d="M831.47,2086.07a104.81,104.81,0,0,1-37.64-7,924.15,924.15,0,0,0,245.21,130l-9-148.1a105,105,0,0,1-68.19,25.11Z"/><polygon class="cls-10" points="1985.96 895.57 1985.93 895.04 1985.47 895.33 1985.96 895.57"/><path class="cls-5" d="M1988.76,893.28h0l-1.63,1,222.2,105.23A923.77,923.77,0,0,0,2112.57,815l-123.2,77.9,0,.63,0,0-.06,0-.54-.25h0Z"/><polygon class="cls-10" points="1988.77 893.25 1988.75 893.24 1988.76 893.25 1988.77 893.25"/><polygon class="cls-10" points="1988.76 893.25 1988.73 893.27 1988.76 893.28 1988.76 893.25"/><polygon class="cls-10" points="1988.75 893.24 1988.74 892.99 1988.52 893.13 1988.75 893.24"/><polygon class="cls-11" points="2687.87 1228.01 2687.87 1228.04 2687.91 1228.01 2687.89 1228 2687.87 1228.01"/><polygon class="cls-11" points="2733.4 1976.33 2733.4 1976.37 2733.45 1976.35 2733.4 1976.33"/><polygon class="cls-11" points="1985.18 895.24 1985.22 895.22 1985.18 895.2 1985.18 895.24"/><polygon class="cls-11" points="670.86 1726.27 670.86 1726.3 670.88 1726.29 670.86 1726.27"/><path class="cls-3" d="M1458.53,1610l-64.43,105.25-12.35,20.18c-5.9,9.43-20.32,23.94-34.83,36.17a98.62,98.62,0,0,1-27.1,3.61H1233a102.07,102.07,0,0,1-21.52-2.2l-4,.55,1.69-1.07c-22.15-5.37-40-18.69-53.16-39.79l-.36-.6-88.33-145.74V1793l-.28,0,.28,187.58a105.21,105.21,0,0,1-35,78.39l9.18,150.93q28.73,9.95,58.28,18.05l270.57-171.08,0-.55,0,0,.51.25.12-.08-.15-2.44,99.32-62.79v-400.2Z"/><polygon class="cls-15" points="2687.87 1227.99 2687.87 1228.01 2687.89 1228 2687.87 1227.99"/><path class="cls-8" d="M726,1752.43l-54.9-26-.22.14,15.8,259.68Q714.2,2014,744,2039.45a104.9,104.9,0,0,1-18-58.86Z"/><polygon class="cls-10" points="670.25 1726.08 670.2 1726.06 670.24 1726.69 670.84 1726.31 670.3 1726.05 670.25 1726.08"/><polygon class="cls-16" points="670.25 1726.08 670.2 1726.06 670.24 1726.69 670.84 1726.31 670.3 1726.05 670.25 1726.08"/><polygon class="cls-10" points="670.86 1726.32 670.87 1726.57 671.09 1726.43 670.86 1726.32"/><polygon class="cls-17" points="670.86 1726.32 670.87 1726.57 671.09 1726.43 670.86 1726.32"/><polygon class="cls-5" points="1988.54 1260.17 2007.46 1269.14 2007.89 1268.87 1985.18 895.52 1825.24 996.65 1988.54 1260.17"/><path class="cls-3" d="M2210.16,1001.75,1986,895.57l22.65,372.3,0,0,113.78-72,100.23-159.54Q2216.74,1018.93,2210.16,1001.75Z"/><polygon class="cls-6" points="2011.52 1267.42 2011.49 1267.44 2011.52 1267.45 2011.52 1267.42"/><polygon class="cls-6" points="2007.93 1269.42 2007.92 1269.42 2007.93 1269.42 2007.93 1269.42"/><polygon class="cls-6" points="2007.92 1269.36 2007.89 1268.87 2007.46 1269.14 2007.92 1269.36"/><path class="cls-8" d="M2156,1732.73c-17.63,28.21-43.53,42.51-77,42.51h-86.85c-33.44,0-59.34-14.3-77-42.51l-.37-.6-6.7-11.05-79.63,50.35v225.24a89.5,89.5,0,0,1-89.4,89.4h-22.69l5.76,94.67a929.82,929.82,0,0,0,466.29-462.5l-18.3-8.67Z"/><path class="cls-8" d="M2170.4,1709.18l18.25,8.64a918.66,918.66,0,0,0,39.76-103.4Z"/><polygon class="cls-18" points="1330.79 1309.01 1328.56 1310.42 1328.83 1310.55 1331.06 1309.14 1330.79 1309.01"/><polygon class="cls-18" points="1331.59 1308.5 1328.14 1251.81 1328.13 1251.83 1331.58 1308.51 1331.59 1308.5"/><polygon class="cls-18" points="2030.13 1643.25 2030.71 1643.53 2030.66 1642.66 2030.11 1643.01 2030.13 1643.25"/><polygon class="cls-18" points="1002.48 1516.34 1002.5 1516.68 1002.8 1516.49 1002.48 1516.34"/><polygon class="cls-18" points="2030.13 1643.25 2030.17 1643.92 2030.71 1643.57 2030.71 1643.53 2030.13 1643.25"/><polygon class="cls-18" points="2030.11 1643.01 2030.66 1642.66 2030.64 1642.41 2030.06 1642.13 2030.11 1643.01"/><polygon class="cls-18" points="2030.88 1642.52 2030.64 1642.41 2030.66 1642.66 2030.88 1642.52"/><polygon class="cls-18" points="1022.2 1892.7 1022.2 1892.67 1022 1892.58 1022.02 1892.82 1022.2 1892.7"/><polygon class="cls-18" points="1022 1892.58 1021.9 1890.93 1020.45 1891.84 1022 1892.58"/><polygon class="cls-18" points="1702.16 1851.32 1702.13 1851.3 1702.13 1851.34 1702.16 1851.32"/><polygon class="cls-18" points="2030.71 1643.57 2030.75 1643.55 2030.71 1643.53 2030.71 1643.57"/><polygon class="cls-18" points="1022.23 1892.68 1022.2 1892.67 1022.2 1892.7 1022.23 1892.68"/><polygon class="cls-18" points="1328.05 1310.75 1328.02 1310.73 1328.02 1310.77 1328.02 1310.77 1328.02 1310.77 1328.02 1310.77 1328.04 1311.05 1328.31 1310.87 1328.05 1310.75"/><polygon class="cls-18" points="999.44 1518.5 999.44 1518.54 999.47 1518.52 999.47 1518.52 999.44 1518.5"/><polygon class="cls-18" points="1019.85 1893.53 1021.55 1892.45 1021.54 1892.4 1020.41 1891.87 1019.77 1892.28 1019.85 1893.53"/><polygon class="cls-18" points="2029.89 1643.14 2030.13 1643.25 2030.11 1643.01 2029.89 1643.14"/><polygon class="cls-18" points="2030.3 1646.02 2030.17 1643.92 2028.32 1645.09 2030.3 1646.02"/><path class="cls-8" d="M2508.15,1002.61H2325.94c-15.33,0-25.55,5.11-34.06,18.73l-250.33,398.48c-3.4,6.81-10.21,6.81-13.62,0L1781,1021.34c-4.55-7.28-9.59-12.13-15.64-15.06-4.39-2.42-9.88-3.67-16.42-3.67H1564.74c-6.53,0-12,1.25-16.42,3.67-6,2.93-11.09,7.78-15.64,15.06l-250.32,398.48c-3.41,6.81-10.22,6.81-13.63,0l-246.92-398.48c-8.51-13.62-18.73-18.73-34-18.73H805.55a29,29,0,0,0-28.95,28.95v949a54.86,54.86,0,0,0,54.87,54.87H961.84a54.87,54.87,0,0,0,54.87-54.87V1428.33c0-10.21,6.81-11.92,11.92-3.4l170.29,281c8.51,13.62,18.73,18.73,34,18.73h86.85c15.33,0,25.54-5.11,34.06-18.73l172-281c3.39-5.65,7.52-6.8,9.92-4v575.69a38.8,38.8,0,0,0,38.8,38.79H1739.1a38.8,38.8,0,0,0,38.8-38.79V1421c2.4-2.84,6.54-1.69,9.92,4l170.29,281c8.52,13.62,18.73,18.73,34.06,18.73H2079c15.32,0,25.54-5.11,34.06-18.73l172-281c5.11-8.52,11.92-6.81,11.92,3.4v552.26a54.86,54.86,0,0,0,54.87,54.87h130.37a54.87,54.87,0,0,0,54.87-54.87v-949A29,29,0,0,0,2508.15,1002.61Z"/></g></g></g></svg>