<svg xmlns="http://www.w3.org/2000/svg" xmlns:xlink="http://www.w3.org/1999/xlink" viewBox="0 0 4001.08 2971.96"><defs><style>.cls-1{isolation:isolate;}.cls-2{fill:#e6e6e6;}.cls-3{fill:#7562e0;}.cls-4{fill:url(#Gradiente_sem_nome_6);}.cls-5{fill:url(#Gradiente_sem_nome_6-2);}.cls-6{fill:url(#Gradiente_sem_nome_6-3);}.cls-7{fill:url(#Gradiente_sem_nome_6-4);}.cls-8{fill:url(#Gradiente_sem_nome_6-5);}.cls-9{fill:url(#Gradiente_sem_nome_6-6);}.cls-10{fill:url(#Gradiente_sem_nome_6-7);}.cls-11{fill:url(#Gradiente_sem_nome_6-8);}.cls-12{fill:url(#Gradiente_sem_nome_6-9);}.cls-13{fill:url(#Gradiente_sem_nome_6-10);}.cls-14{fill:url(#Gradiente_sem_nome_6-11);}.cls-15{fill:url(#Gradiente_sem_nome_6-12);}.cls-16{fill:url(#Gradiente_sem_nome_6-13);}.cls-17{fill:url(#Gradiente_sem_nome_6-14);}.cls-18{fill:url(#Gradiente_sem_nome_6-15);}.cls-19{fill:url(#Gradiente_sem_nome_6-16);}.cls-20{fill:url(#Gradiente_sem_nome_6-17);}.cls-21{fill:none;}.cls-22{fill:#da1381;}.cls-23{mix-blend-mode:multiply;}.cls-24{fill:#deddf3;}.cls-25{fill:#3d9a98;}.cls-26{fill:#d3d3e5;}.cls-27{fill:#1f3235;}.cls-28{fill:#005d7f;}.cls-29{fill:#00181e;}.cls-30{fill:#a5a3db;}.cls-31{fill:#8cc6c5;}.cls-32{fill:#e5b7cf;}.cls-33{fill:#998675;}.cls-34{fill:url(#linear-gradient);}.cls-35{fill:url(#linear-gradient-2);}.cls-36{fill:#fff;}</style><linearGradient id="Gradiente_sem_nome_6" x1="139.73" y1="2534.03" x2="139.73" y2="3080.63" gradientUnits="userSpaceOnUse"><stop offset="0.29" stop-color="gray" stop-opacity="0.2"/><stop offset="0.45" stop-color="#9f9f9f" stop-opacity="0.15"/><stop offset="0.68" stop-color="#f2f2f2" stop-opacity="0"/></linearGradient><linearGradient id="Gradiente_sem_nome_6-2" x1="441.34" y1="2534.03" x2="441.34" y2="3080.56" xlink:href="#Gradiente_sem_nome_6"/><linearGradient id="Gradiente_sem_nome_6-3" x1="711.83" y1="2534.03" x2="711.83" y2="3080.56" xlink:href="#Gradiente_sem_nome_6"/><linearGradient id="Gradiente_sem_nome_6-4" x1="999.13" y1="2534.03" x2="999.13" y2="3080.56" xlink:href="#Gradiente_sem_nome_6"/><linearGradient id="Gradiente_sem_nome_6-5" x1="1250.72" y1="2534.03" x2="1250.72" y2="3080.56" xlink:href="#Gradiente_sem_nome_6"/><linearGradient id="Gradiente_sem_nome_6-6" x1="1444.09" y1="2534.03" x2="1444.09" y2="3080.63" xlink:href="#Gradiente_sem_nome_6"/><linearGradient id="Gradiente_sem_nome_6-7" x1="1651.59" y1="2534.03" x2="1651.59" y2="3080.56" xlink:href="#Gradiente_sem_nome_6"/><linearGradient id="Gradiente_sem_nome_6-8" x1="1948.81" y1="2534.03" x2="1948.81" y2="3080.56" xlink:href="#Gradiente_sem_nome_6"/><linearGradient id="Gradiente_sem_nome_6-9" x1="2263.21" y1="2534.03" x2="2263.21" y2="3080.56" xlink:href="#Gradiente_sem_nome_6"/><linearGradient id="Gradiente_sem_nome_6-10" x1="2524.73" y1="2534.03" x2="2524.73" y2="3080.56" xlink:href="#Gradiente_sem_nome_6"/><linearGradient id="Gradiente_sem_nome_6-11" x1="2748.27" y1="2534.03" x2="2748.27" y2="3080.56" xlink:href="#Gradiente_sem_nome_6"/><linearGradient id="Gradiente_sem_nome_6-12" x1="2961.3" y1="2534.03" x2="2961.3" y2="3080.56" xlink:href="#Gradiente_sem_nome_6"/><linearGradient id="Gradiente_sem_nome_6-13" x1="3168.22" y1="2534.03" x2="3168.22" y2="3080.56" xlink:href="#Gradiente_sem_nome_6"/><linearGradient id="Gradiente_sem_nome_6-14" x1="3320.36" y1="2534.03" x2="3320.36" y2="3080.56" xlink:href="#Gradiente_sem_nome_6"/><linearGradient id="Gradiente_sem_nome_6-15" x1="3491.59" y1="2534.03" x2="3491.59" y2="3080.56" xlink:href="#Gradiente_sem_nome_6"/><linearGradient id="Gradiente_sem_nome_6-16" x1="3722.57" y1="2534.03" x2="3722.57" y2="3080.56" xlink:href="#Gradiente_sem_nome_6"/><linearGradient id="Gradiente_sem_nome_6-17" x1="3913.46" y1="2534.03" x2="3913.46" y2="3080.56" xlink:href="#Gradiente_sem_nome_6"/><linearGradient id="linear-gradient" x1="10939.52" y1="13120.46" x2="10939.52" y2="12779.87" gradientTransform="matrix(-0.06, -1, -1, 0.06, 14961.71, 11855.17)" gradientUnits="userSpaceOnUse"><stop offset="0.17" stop-color="#1f191a"/><stop offset="0.2" stop-color="#19262d"/><stop offset="0.27" stop-color="#103a4a"/><stop offset="0.34" stop-color="#094962"/><stop offset="0.42" stop-color="#045472"/><stop offset="0.5" stop-color="#015b7c"/><stop offset="0.61" stop-color="#005d7f"/></linearGradient><linearGradient id="linear-gradient-2" x1="10939.41" y1="13120.46" x2="10939.41" y2="12779.87" xlink:href="#linear-gradient"/></defs><g class="cls-1"><g id="Camada_2" data-name="Camada 2"><g id="Camada_1-2" data-name="Camada 1"><path class="cls-2" d="M0,2427.62H47l93.16,208.08,92.77-208.08h46.58V2693H235.94V2511.23L155,2693H124.84L43.52,2511.23V2693H0Z"/><path class="cls-2" d="M496.7,2638.75H385.6L366.51,2693H321.08l95.06-265.72h50.4L561.6,2693H515.79Zm-55.36-158.82-43.52,123.32h86.66Z"/><path class="cls-2" d="M820.83,2427.24V2693H777.31L646.36,2494.82V2693H602.83V2427.24h43.53L777.31,2625V2427.24Z"/><path class="cls-2" d="M999.13,2695.64c-74.83,0-135.54-56.13-135.54-135.92,0-79.41,60.71-135.53,135.54-135.53,75.59,0,135.53,56.12,135.53,135.53C1134.66,2639.51,1074.72,2695.64,999.13,2695.64Zm0-37.8c52.68,0,90.86-38.18,90.86-98.12s-38.18-97.35-90.86-97.35-90.87,37.41-90.87,97.35S946.44,2657.84,999.13,2657.84Z"/><path class="cls-2" d="M1324,2462.75H1220.94v77.88h91.63v35.51h-91.63v81.32H1324V2693H1177.42V2427.24H1324Z"/><path class="cls-2" d="M1421,2427.62v230.22h89.71V2693H1377.47V2427.62Z"/><path class="cls-2" d="M1707,2638.75h-111.1L1576.76,2693h-45.43l95.06-265.72h50.4L1771.85,2693H1726Zm-55.36-158.82-43.52,123.32h86.66Z"/><path class="cls-2" d="M1813.85,2428.77h37.41L1949,2647.15l97.74-218.38h37V2693H2049V2496l-87.81,197h-24.44l-88.19-197.38V2693h-34.74Z"/><path class="cls-2" d="M2263.21,2695.64c-74.83,0-133.63-56.13-133.63-135.92s58.8-135.91,133.63-135.91c75.21,0,133.62,56.12,133.62,135.91S2338.42,2695.64,2263.21,2695.64Zm0-30.16c56.12,0,98.11-40.85,98.11-105.76,0-65.28-42-105.75-98.11-105.75s-98.12,40.47-98.12,105.75C2165.09,2624.63,2207.08,2665.48,2263.21,2665.48Z"/><path class="cls-2" d="M2420.5,2426.86h38.56l65.67,134.77,65.67-134.77H2629l-86.67,165.69V2693h-34.74V2592.55Z"/><path class="cls-2" d="M2750,2695.64c-53.45,0-91.24-29.78-92-73.69h37c2.29,22.15,17.94,44.29,55,44.29,33.6,0,53.45-19.09,53.45-44.29,0-71.77-143.93-26-143.93-124.84,0-43.91,35.51-73.69,88.19-73.69,50.78,0,84,27.87,88.2,68.34h-38.18c-2.29-17.94-19.09-38.17-51.54-38.56-28.64-.76-51.16,14.13-51.16,42.76,0,68.72,143.55,26,143.55,124.47C2838.56,2658.22,2807.63,2695.64,2750,2695.64Z"/><path class="cls-2" d="M3032.88,2455.11H2924.46v89h97v28.63h-97v91.63h108.42V2693H2889.71V2426.48h143.17Z"/><path class="cls-2" d="M3169.94,2695.64c-53.45,0-91.25-29.78-92-73.69h37c2.29,22.15,17.95,44.29,55,44.29,33.6,0,53.45-19.09,53.45-44.29,0-71.77-143.93-26-143.93-124.84,0-43.91,35.5-73.69,88.19-73.69,50.78,0,84,27.87,88.19,68.34h-38.18c-2.29-17.94-19.09-38.17-51.54-38.56-28.63-.76-51.16,14.13-51.16,42.76,0,68.72,143.55,26,143.55,124.47C3258.51,2658.22,3227.59,2695.64,3169.94,2695.64Z"/><path class="cls-3" d="M3320.74,2695.26a23.68,23.68,0,0,1,0-47.35c12.6,0,22.91,10.31,22.91,23.67S3333.34,2695.26,3320.74,2695.26Z"/><path class="cls-3" d="M3592.19,2426.1V2693h-26.73l-147.75-224.49V2693H3391V2426.1h26.72l147.75,224.11V2426.1Z"/><path class="cls-3" d="M3792.24,2447.86H3679.62v99.64h101.17v22.15H3679.62v101.17h112.62V2693H3652.89V2425.71h139.35Z"/><path class="cls-3" d="M3825.84,2426.1h175.24v22.14H3927V2693h-26.72V2448.24h-74.45Z"/><path class="cls-4" d="M0,2967.64H47l93.16-214.31,92.77,214.31h46.58v-273.3H235.94v187.18L155,2694.34H124.84L43.52,2881.52V2694.34H0Z"/><path class="cls-5" d="M496.7,2750.18H385.6l-19.09-55.84H321.08L416.14,2968h50.4l95.06-273.69H515.79Zm-55.36,163.59-43.52-127h86.66Z"/><path class="cls-6" d="M820.83,2968V2694.34H777.31L646.36,2898.43V2694.34H602.83V2968h43.53l130.95-203.7V2968Z"/><path class="cls-7" d="M999.13,2691.59c-74.83,0-135.54,57.8-135.54,140,0,81.79,60.71,139.6,135.54,139.6,75.59,0,135.53-57.81,135.53-139.6C1134.66,2749.39,1074.72,2691.59,999.13,2691.59Zm0,38.93c52.68,0,90.86,39.32,90.86,101.06s-38.18,100.27-90.86,100.27-90.87-38.53-90.87-100.27S946.44,2730.52,999.13,2730.52Z"/><path class="cls-8" d="M1324,2931.46H1220.94v-80.22h91.63v-36.57h-91.63v-83.76H1324v-36.57H1177.42V2968H1324Z"/><path class="cls-9" d="M1421,2967.64V2730.52h89.71v-36.18H1377.47v273.3Z"/><path class="cls-10" d="M1707,2750.18h-111.1l-19.09-55.84h-45.43L1626.39,2968h50.4l95.06-273.69H1726Zm-55.36,163.59-43.52-127h86.66Z"/><path class="cls-11" d="M1813.85,2966.46h37.41L1949,2741.53l97.74,224.93h37V2694.34H2049v202.91l-87.81-202.91h-24.44l-88.19,203.3v-203.3h-34.74Z"/><path class="cls-12" d="M2263.21,2691.59c-74.83,0-133.63,57.8-133.63,140s58.8,140,133.63,140c75.21,0,133.62-57.8,133.62-140S2338.42,2691.59,2263.21,2691.59Zm0,31.06c56.12,0,98.11,42.08,98.11,108.93,0,67.24-42,108.93-98.11,108.93s-98.12-41.69-98.12-108.93C2165.09,2764.73,2207.08,2722.65,2263.21,2722.65Z"/><path class="cls-13" d="M2420.5,2968.43h38.56l65.67-138.82,65.67,138.82H2629l-86.67-170.67V2694.34h-34.74v103.42Z"/><path class="cls-14" d="M2750,2691.59c-53.45,0-91.24,30.67-92,75.89h37c2.29-22.81,17.94-45.61,55-45.61,33.6,0,53.45,19.66,53.45,45.61,0,73.93-143.93,26.74-143.93,128.59,0,45.22,35.51,75.89,88.19,75.89,50.78,0,84-28.7,88.2-70.38h-38.18c-2.29,18.48-19.09,39.32-51.54,39.71-28.64.79-51.16-14.55-51.16-44,0-70.78,143.55-26.74,143.55-128.2C2838.56,2730.12,2807.63,2691.59,2750,2691.59Z"/><path class="cls-15" d="M3032.88,2939.33H2924.46V2847.7h97v-29.49h-97v-94.38h108.42v-29.49H2889.71v274.48h143.17Z"/><path class="cls-16" d="M3169.94,2691.59c-53.45,0-91.25,30.67-92,75.89h37c2.29-22.81,17.95-45.61,55-45.61,33.6,0,53.45,19.66,53.45,45.61,0,73.93-143.93,26.74-143.93,128.59,0,45.22,35.5,75.89,88.19,75.89,50.78,0,84-28.7,88.19-70.38h-38.18c-2.29,18.48-19.09,39.32-51.54,39.71-28.63.79-51.16-14.55-51.16-44,0-70.78,143.55-26.74,143.55-128.2C3258.51,2730.12,3227.59,2691.59,3169.94,2691.59Z"/><path class="cls-17" d="M3320.74,2692c-13.36,0-23.67,10.62-23.67,24.38s10.31,24.38,23.67,24.38c12.6,0,22.91-10.62,22.91-24.38S3333.34,2692,3320.74,2692Z"/><path class="cls-18" d="M3592.19,2969.21V2694.34h-26.73l-147.75,231.22V2694.34H3391v274.87h26.72l147.75-230.83v230.83Z"/><path class="cls-19" d="M3792.24,2946.8H3679.62V2844.16h101.17v-22.8H3679.62V2717.15h112.62v-22.81H3652.89v275.27h139.35Z"/><path class="cls-20" d="M3825.84,2969.21h175.24V2946.4H3927V2694.34h-26.72V2946.4h-74.45Z"/><polygon class="cls-21" points="2007.88 2058.72 2007.36 2059.04 2007.36 2059.07 2007.4 2059.08 2007.88 2058.77 2007.88 2058.72"/><polygon class="cls-21" points="2558.61 933.47 2458.96 996.48 2459.06 996.65 2619 895.52 2618.98 895.3 2558.61 933.47"/><polygon class="cls-21" points="1934.87 1294.93 1935.15 1294.49 1863.35 1260.49 1863.85 1261.29 1934.87 1294.93"/><polygon class="cls-21" points="2462.32 1770.49 2462.32 1771.43 2541.95 1721.08 2541.54 1720.4 2462.32 1770.49"/><polygon class="cls-21" points="2284.92 952.01 2285.12 952.01 2271.43 726.98 2271.23 726.89 2271.2 726.87 2271.23 726.89 2284.92 952.01"/><polygon class="cls-21" points="983.51 1240.4 983.51 1240.43 983.54 1240.42 983.51 1240.4"/><polygon class="cls-21" points="1920.48 545.2 1920.46 544.98 1920.24 545.12 1920.45 545.22 1920.48 545.2"/><polygon class="cls-21" points="1359.81 1691.66 1359.81 1691.44 1308.25 1724.04 1308.26 1724.26 1359.81 1691.66"/><polygon class="cls-22" points="1625.31 743.19 1907.16 876.68 1907.19 876.66 1888.93 576.52 1888.51 576.78 1888.51 576.73 1625.31 743.16 1625.31 743.19"/><polygon class="cls-23" points="1897.78 186.53 1897.75 186.51 1897.08 186.94 1897.83 187.29 1897.78 186.53"/><path class="cls-24" d="M1698.54,994.52l.11.17,30.22,48.77,203.74-128.83L1581.3,748.25,1593.69,952h27.88C1655,952,1680.91,966.31,1698.54,994.52ZM1591.27,768.24l0,0v0Z"/><polygon class="cls-25" points="2271.43 726.98 2271.41 726.74 2271.22 726.86 2271.23 726.89 2271.43 726.98"/><path class="cls-24" d="M2158.91,961.31c11.7-6.17,25-9.3,39.65-9.3h86.36l-13.69-225.12,0,0L1944.67,933.34l167.51,79.33,11.47-18.25C2132.91,979.6,2144.79,968.44,2158.91,961.31Z"/><path class="cls-22" d="M2382.77,952c14.61,0,27.94,3.13,39.64,9.3,14.13,7.13,26,18.29,35.33,33.21l.1.17,1.12,1.79,99.65-63L2619,895.3l0,.22.28-.19-.25-.11,0,0v0h0l.7-.43-.07-1,0,0h0l1,.46,1.62-1L2271.43,727l13.69,225Z"/><path class="cls-26" d="M2749.09,813l-13.24-13.23q5.28,7.46,10.41,15Z"/><path class="cls-22" d="M1809.14,151.45a715,715,0,0,0-290.46,88.35L1823.3,384.07Z"/><polygon class="cls-22" points="1459.86 895.6 1440.64 579.73 1437.26 524.2 1437.23 524.18 1111.08 730.41 1230.8 787.11 1459.86 895.6"/><path class="cls-3" d="M1078.67,691.92l-14.12-232.16-83.18,83.18a721.29,721.29,0,0,0-63.63,72.8l160.9,76.2Z"/><path class="cls-3" d="M1147.23,533.54l-.12-2.11,2,.94,326.15-206.23,0,0L1455.43,0a719.36,719.36,0,0,0-114,92.83L1132.56,301.72l14.13,232.16Z"/><path class="cls-24" d="M1564.76,379.9q-19.21,10.74-37.8,23L1534.15,521l10.2,167.64,287.48-181.78,0-.48L1708,447.74Z"/><polygon class="cls-27" points="1897.08 186.94 1896.6 186.71 1896.63 187.22 1897.08 186.94"/><polygon class="cls-27" points="1919.36 560.78 1919.85 560.47 1919.33 560.23 1919.36 560.78"/><path class="cls-3" d="M1919.9,545.34l20.4,335.34h0v0l0,0,1.78-1.12-1.77-.84v0L2235,692.37l-15.41-253.25a921.15,921.15,0,0,0-98.79-20.78l1-.62a1007.13,1007.13,0,0,0-129-8.26q-41.23,0-81.66,3.31l8.09,133Zm.56-.36,0,.22,0,0-.21-.1Z"/><polygon class="cls-27" points="1920.52 560.68 1920.55 560.66 1920.51 560.11 1920 560.44 1920.52 560.68"/><polygon class="cls-27" points="1919.88 560.45 1919.85 560.47 1919.88 560.49 1919.88 560.51 1920 560.44 1919.95 560.41 1919.88 560.45"/><path class="cls-24" d="M2271.25,668.61h0l.13,2.1,196.08-124a922.12,922.12,0,0,0-209.68-96.45l13.28,218.41Z"/><polygon class="cls-28" points="1307.47 1723.99 1307.5 1724.51 1307.96 1724.22 1307.47 1723.99"/><polygon class="cls-29" points="1591.27 768.24 1591.3 768.26 1591.3 768.22 1591.27 768.24"/><polygon class="cls-29" points="2271.22 726.86 2271.2 726.87 2271.23 726.89 2271.22 726.86"/><polygon class="cls-24" points="1942.69 934.59 1942.69 934.59 1942.66 934.61 1942.66 934.61 1961.96 1251.81 2111.13 1014.36 1942.69 934.59"/><path class="cls-22" d="M2271.88,727.15l350.46,166,.22-.14.61-.39,123.09-77.83q-5.13-7.56-10.41-15a931.86,931.86,0,0,0-222.67-222.68l-1.91-1.33L2271.88,727.11Z"/><polygon class="cls-3" points="1288.6 1348.18 1289.12 1348.42 1286.02 1350.38 1359.81 1385.33 1359.81 1303.15 1288.6 1348.18"/><polygon class="cls-3" points="1285.53 1350.69 1308.25 1724.04 1359.81 1691.44 1359.81 1385.39 1285.96 1350.42 1285.53 1350.69"/><polygon class="cls-3" points="1962.07 1251.4 1961.92 1251.41 1942.65 934.65 1942.64 934.62 1942.61 934.64 1740.59 1062.38 1863.35 1260.49 1864.84 1261.19 1863.85 1261.29 1909.61 1335.14 1935.09 1294.46 1935.15 1294.49 1961.94 1251.83 1961.93 1251.63 1962.07 1251.4"/><path class="cls-3" d="M1405.82,959.45,1185.45,855.09l-48.18-22.82,6.11,100.47,16.44,270.1.73.35,59.69-37.75,139.57-88.25v-45.63A79.64,79.64,0,0,1,1405.82,959.45ZM1263.3,976.3l-.58-.27,0,0,0,0,.54-.34-.13-2.11,2,.94-1.85,1.17Z"/><polygon class="cls-30" points="1262.72 976.03 1263.3 976.3 1263.26 975.64 1262.72 975.99 1262.72 976.03"/><polygon class="cls-30" points="1262.68 976.01 1262.72 976.03 1262.72 975.99 1262.68 976.01"/><polygon class="cls-24" points="1263.13 973.53 1263.26 975.64 1265.11 974.47 1263.13 973.53"/><polygon class="cls-25" points="1285.48 1350.15 1285.48 1350.19 1285.5 1350.2 1285.5 1350.14 1285.48 1350.15"/><polygon class="cls-25" points="1285.5 1350.14 1285.5 1350.14 1285.5 1350.14 1285.5 1350.14"/><polygon class="cls-25" points="1285.5 1350.2 1285.53 1350.69 1285.96 1350.42 1285.5 1350.2"/><path class="cls-22" d="M891.87,1482.65q5.57,18.52,12.17,36.79l56.94,27,132.71,62.85L1213.45,1666l-22.65-372.3h0l-137.45,86.9Z"/><path class="cls-24" d="M973.33,1832.62l154.36-97.6,0-.63,0,0,.06,0,.54.26h0v0h0l1.63-1L822.49,1588A713,713,0,0,0,973.33,1832.62Z"/><path class="cls-22" d="M741.74,1012.11c-3.42,13.43-6.5,26.94-9.13,40.51l316.6,150L1026.66,832l0,0Z"/><path class="cls-24" d="M669.68,1088.19a720.2,720.2,0,0,0,17.53,339.87v0l31.66-20L987.05,1238.5Zm313.83,152.22h0Z"/><path class="cls-24" d="M757.41,620.12A711.89,711.89,0,0,0,633.82,875.69l15.85-10L917.84,696.1Z"/><polygon class="cls-28" points="2619.7 893.72 2619.66 893.74 2619.73 894.78 2620.67 894.18 2619.7 893.72 2619.7 893.72"/><polygon class="cls-24" points="1308.26 1724.26 1308.25 1724.04 1307.96 1724.22 1308.21 1724.34 1308.25 1724.32 1308.25 1724.36 1308.21 1724.34 1307.52 1724.78 1307.58 1725.81 1307.55 1725.84 1307.54 1725.84 1306.57 1725.38 1304.95 1726.4 1359.81 1752.38 1359.81 1691.66 1308.26 1724.26"/><polygon class="cls-31" points="1307.55 1725.84 1307.58 1725.81 1307.52 1724.78 1306.57 1725.38 1307.54 1725.84 1307.55 1725.84"/><polygon class="cls-31" points="1308.25 1724.32 1308.21 1724.34 1308.25 1724.36 1308.25 1724.32"/><path class="cls-24" d="M1180.57,1805.05a930.62,930.62,0,0,0,139.24,180.51L1304.07,1727Z"/><polygon class="cls-27" points="1304.66 1726.31 1304.67 1726.32 1304.67 1726.3 1304.66 1726.31"/><path class="cls-27" d="M2357.76,2225l.95.44-.06-1Z"/><path class="cls-24" d="M2352.63,2083.64H2210.81a89.5,89.5,0,0,1-89.4-89.4v-8.16l-111.12,70.27v0L1742,2226.05a927.72,927.72,0,0,0,243.34,32.29q20.25,0,40.3-.88v-.2c91.68-4.47,197.49-29.1,283-59.12l.83.39q24.86-9.42,49-20.21Z"/><polygon class="cls-27" points="2007.4 2059.08 2007.92 2059.33 2007.88 2058.77 2007.4 2059.08"/><path class="cls-32" d="M1701.13,1862.21v2L1845.26,1773c-.76-.16-1.53-.33-2.29-.52Z"/><polygon class="cls-27" points="2007.24 2059.12 2006.86 2058.94 2006.88 2059.35 2007.24 2059.12"/><polygon class="cls-27" points="2006.7 2058.9 2006.73 2059.44 2006.88 2059.35 2006.86 2058.94 2006.73 2058.88 2006.7 2058.9"/><polygon class="cls-27" points="2007.36 2059.04 2007.24 2059.12 2007.3 2059.15 2007.37 2059.1 2007.4 2059.08 2007.36 2059.07 2007.36 2059.04"/><polygon class="cls-27" points="2006.88 2059.35 2006.89 2059.41 2007.3 2059.15 2007.24 2059.12 2006.88 2059.35"/><polygon class="cls-27" points="2006.73 2059.44 2006.74 2059.5 2006.89 2059.41 2006.88 2059.35 2006.73 2059.44"/><path class="cls-26" d="M1465.28,2086.07a104.81,104.81,0,0,1-37.64-7,924.36,924.36,0,0,0,245.22,130l-9-148.1a105,105,0,0,1-68.2,25.11Z"/><polygon class="cls-28" points="2619.78 895.57 2619.74 895.04 2619.28 895.33 2619.78 895.57"/><path class="cls-24" d="M2622.57,893.28h0l-1.62,1,222.2,105.23A924.29,924.29,0,0,0,2746.39,815l-123.2,77.9,0,.63-.05,0,0,0-.54-.25h0Z"/><polygon class="cls-28" points="2622.59 893.25 2622.57 893.24 2622.57 893.25 2622.59 893.25"/><polygon class="cls-28" points="2622.57 893.25 2622.55 893.27 2622.57 893.28 2622.57 893.25"/><polygon class="cls-28" points="2622.57 893.24 2622.55 892.99 2622.34 893.13 2622.57 893.24"/><polygon class="cls-29" points="3321.69 1228.01 3321.69 1228.04 3321.73 1228.01 3321.71 1228 3321.69 1228.01"/><polygon class="cls-29" points="3367.22 1976.33 3367.22 1976.37 3367.26 1976.35 3367.22 1976.33"/><polygon class="cls-29" points="2619 895.24 2619.03 895.22 2618.99 895.2 2619 895.24"/><polygon class="cls-29" points="1304.67 1726.27 1304.67 1726.3 1304.7 1726.29 1304.67 1726.27"/><path class="cls-22" d="M2092.34,1610l-64.42,105.25-12.36,20.18c-5.89,9.43-20.31,23.94-34.83,36.17a98.5,98.5,0,0,1-27.09,3.61h-86.85a102.17,102.17,0,0,1-21.53-2.2l-4,.55,1.69-1.07c-22.14-5.37-40-18.69-53.15-39.79l-.37-.6-88.32-145.74V1793l-.29,0,.29,187.58a105.24,105.24,0,0,1-35,78.39l9.18,150.93q28.73,9.95,58.27,18.05l270.58-171.08,0-.55,0,0,.52.25.12-.08-.15-2.44,99.31-62.79v-400.2Z"/><polygon class="cls-33" points="3321.69 1227.99 3321.69 1228.01 3321.71 1228 3321.69 1227.99"/><path class="cls-3" d="M1359.81,1752.43l-54.9-26-.22.14,15.8,259.68q27.52,27.78,57.31,53.2a104.9,104.9,0,0,1-18-58.86Z"/><polygon class="cls-28" points="1304.06 1726.08 1304.02 1726.06 1304.06 1726.69 1304.66 1726.31 1304.11 1726.05 1304.06 1726.08"/><polygon class="cls-34" points="1304.06 1726.08 1304.02 1726.06 1304.06 1726.69 1304.66 1726.31 1304.11 1726.05 1304.06 1726.08"/><polygon class="cls-28" points="1304.67 1726.32 1304.69 1726.57 1304.91 1726.43 1304.67 1726.32"/><polygon class="cls-35" points="1304.67 1726.32 1304.69 1726.57 1304.91 1726.43 1304.67 1726.32"/><polygon class="cls-24" points="2622.35 1260.17 2641.28 1269.14 2641.71 1268.87 2619 895.52 2459.06 996.65 2622.35 1260.17"/><path class="cls-22" d="M2844,1001.75l-224.2-106.18,22.65,372.3,0,0,113.78-72,100.22-159.54Q2850.55,1018.93,2844,1001.75Z"/><polygon class="cls-25" points="2645.34 1267.42 2645.31 1267.44 2645.34 1267.45 2645.34 1267.42"/><polygon class="cls-25" points="2641.74 1269.42 2641.74 1269.42 2641.74 1269.42 2641.74 1269.42"/><polygon class="cls-25" points="2641.74 1269.36 2641.71 1268.87 2641.28 1269.14 2641.74 1269.36"/><path class="cls-3" d="M2789.8,1732.73c-17.63,28.21-43.52,42.51-77,42.51H2626c-33.45,0-59.34-14.3-77-42.51l-.36-.6-6.7-11.05-79.63,50.35v225.24a89.5,89.5,0,0,1-89.4,89.4h-22.69l5.76,94.67a929.68,929.68,0,0,0,466.28-462.5l-18.29-8.67Z"/><path class="cls-3" d="M2804.22,1709.18l18.25,8.64a920.53,920.53,0,0,0,39.75-103.4Z"/><polygon class="cls-36" points="1964.6 1309.01 1962.37 1310.42 1962.64 1310.55 1964.87 1309.14 1964.6 1309.01"/><polygon class="cls-36" points="1965.41 1308.5 1961.96 1251.81 1961.94 1251.83 1965.39 1308.51 1965.41 1308.5"/><polygon class="cls-36" points="2663.94 1643.25 2664.53 1643.53 2664.47 1642.66 2663.93 1643.01 2663.94 1643.25"/><polygon class="cls-36" points="1636.3 1516.34 1636.32 1516.68 1636.62 1516.49 1636.3 1516.34"/><polygon class="cls-36" points="2663.94 1643.25 2663.98 1643.92 2664.53 1643.57 2664.53 1643.53 2663.94 1643.25"/><polygon class="cls-36" points="2663.93 1643.01 2664.47 1642.66 2664.46 1642.41 2663.88 1642.13 2663.93 1643.01"/><polygon class="cls-36" points="2664.7 1642.52 2664.46 1642.41 2664.47 1642.66 2664.7 1642.52"/><polygon class="cls-36" points="1656.02 1892.7 1656.02 1892.67 1655.82 1892.58 1655.83 1892.82 1656.02 1892.7"/><polygon class="cls-36" points="1655.82 1892.58 1655.72 1890.93 1654.27 1891.84 1655.82 1892.58"/><polygon class="cls-36" points="2335.98 1851.32 2335.94 1851.3 2335.95 1851.34 2335.98 1851.32"/><polygon class="cls-36" points="2664.53 1643.57 2664.56 1643.55 2664.53 1643.53 2664.53 1643.57"/><polygon class="cls-36" points="1656.05 1892.68 1656.02 1892.67 1656.02 1892.7 1656.05 1892.68"/><polygon class="cls-36" points="1961.87 1310.75 1961.83 1310.73 1961.84 1310.77 1961.84 1310.77 1961.84 1310.77 1961.84 1310.77 1961.85 1311.05 1962.13 1310.87 1961.87 1310.75"/><polygon class="cls-36" points="1633.25 1518.5 1633.26 1518.54 1633.28 1518.52 1633.28 1518.52 1633.25 1518.5"/><polygon class="cls-36" points="1653.66 1893.53 1655.36 1892.45 1655.36 1892.4 1654.23 1891.87 1653.59 1892.28 1653.66 1893.53"/><polygon class="cls-36" points="2663.71 1643.14 2663.94 1643.25 2663.93 1643.01 2663.71 1643.14"/><polygon class="cls-36" points="2664.11 1646.02 2663.98 1643.92 2662.13 1645.09 2664.11 1646.02"/><path class="cls-3" d="M3142,1002.61H2959.75c-15.32,0-25.54,5.11-34.06,18.73l-250.32,398.48c-3.4,6.81-10.22,6.81-13.62,0l-246.92-398.48c-4.55-7.28-9.59-12.13-15.64-15.06-4.39-2.42-9.89-3.67-16.42-3.67H2198.56c-6.54,0-12,1.25-16.42,3.67-6,2.93-11.09,7.78-15.64,15.06l-250.33,398.48c-3.4,6.81-10.21,6.81-13.62,0l-246.92-398.48c-8.51-13.62-18.73-18.73-34.06-18.73H1439.36a29,29,0,0,0-28.95,28.95v949a54.87,54.87,0,0,0,54.87,54.87h130.37a54.86,54.86,0,0,0,54.87-54.87V1428.33c0-10.21,6.81-11.92,11.92-3.4l170.29,281c8.52,13.62,18.73,18.73,34.06,18.73h86.85c15.32,0,25.54-5.11,34.06-18.73l172-281c3.38-5.65,7.52-6.8,9.92-4v575.69a38.8,38.8,0,0,0,38.8,38.79h164.51a38.8,38.8,0,0,0,38.8-38.79V1421c2.4-2.84,6.53-1.69,9.92,4l170.29,281c8.51,13.62,18.73,18.73,34.06,18.73h86.84c15.33,0,25.55-5.11,34.06-18.73l172-281c5.11-8.52,11.92-6.81,11.92,3.4v552.26a54.87,54.87,0,0,0,54.87,54.87H3116a54.86,54.86,0,0,0,54.87-54.87v-949A29,29,0,0,0,3142,1002.61Z"/></g></g></g></svg>